<svg width="10" height="10" viewBox="0 0 10 10" fill="none" xmlns="http://www.w3.org/2000/svg">
<path d="M6.53117 7.01043L6.99992 6.54168L5.34367 4.87501V2.78126H4.71867V5.12501L6.53117 7.01043ZM4.99992 9.16668C4.43047 9.16668 3.89228 9.0573 3.38534 8.83855C2.87839 8.6198 2.43568 8.32119 2.05721 7.94272C1.67874 7.56425 1.38013 7.12154 1.16138 6.61459C0.942627 6.10765 0.833252 5.56945 0.833252 5.00001C0.833252 4.43057 0.942627 3.89237 1.16138 3.38543C1.38013 2.87848 1.67874 2.43577 2.05721 2.0573C2.43568 1.67883 2.87839 1.38022 3.38534 1.16147C3.89228 0.942718 4.43047 0.833344 4.99992 0.833344C5.56936 0.833344 6.10756 0.942718 6.6145 1.16147C7.12145 1.38022 7.56415 1.67883 7.94263 2.0573C8.3211 2.43577 8.61971 2.87848 8.83846 3.38543C9.05721 3.89237 9.16658 4.43057 9.16658 5.00001C9.16658 5.56945 9.05721 6.10765 8.83846 6.61459C8.61971 7.12154 8.3211 7.56425 7.94263 7.94272C7.56415 8.32119 7.12145 8.6198 6.6145 8.83855C6.10756 9.0573 5.56936 9.16668 4.99992 9.16668ZM4.99992 8.54168C5.97214 8.54168 6.80547 8.19445 7.49992 7.50001C8.19436 6.80557 8.54158 5.97223 8.54158 5.00001C8.54158 4.02779 8.19436 3.19445 7.49992 2.50001C6.80547 1.80557 5.97214 1.45834 4.99992 1.45834C4.0277 1.45834 3.19436 1.80557 2.49992 2.50001C1.80547 3.19445 1.45825 4.02779 1.45825 5.00001C1.45825 5.97223 1.80547 6.80557 2.49992 7.50001C3.19436 8.19445 4.0277 8.54168 4.99992 8.54168Z" fill="#A6A6A6"/>
</svg>
